<svg height="512pt" viewBox="0 -51 512.00054 512" width="512pt" xmlns="http://www.w3.org/2000/svg"><path d="m256 53.617188c-177.003906-172.984376-470.207031 106.757812-8.695312 354.011718 5.425781 2.90625 11.964843 2.90625 17.390624 0 461.511719-247.253906 168.308594-526.996094-8.695312-354.011718zm0 0" fill="#fc595a"/><path d="m154.503906 1.421875c-156.441406-21.421875-285.878906 203.328125 92.800782 406.207031 5.425781 2.90625 11.964843 2.90625 17.390624 0 4.027344-2.160156 7.992188-4.320312 11.910157-6.484375-330.917969-182.863281-254.9375-381.113281-122.101563-399.722656zm0 0" fill="#d94244"/><g fill="#494a59"><path d="m164.300781 215.640625c-4.269531 0-7.726562-3.457031-7.726562-7.726563v-17.335937c0-4.269531 3.457031-7.726563 7.726562-7.726563 4.265625 0 7.726563 3.457032 7.726563 7.726563v17.335937c0 4.269532-3.460938 7.726563-7.726563 7.726563zm0 0"/><path d="m355.90625 215.640625c-4.269531 0-7.726562-3.457031-7.726562-7.726563v-17.335937c0-4.269531 3.457031-7.726563 7.726562-7.726563s7.726562 3.457032 7.726562 7.726563v17.335937c0 4.269532-3.457031 7.726563-7.726562 7.726563zm0 0"/><path d="m260.101562 224.898438c-11.445312 0-22.183593-4.777344-29.460937-13.105469-2.808594-3.210938-2.480469-8.09375.730469-10.902344 3.214844-2.808594 8.09375-2.480469 10.902344.734375 4.34375 4.96875 10.84375 7.820312 17.828124 7.820312 6.988282 0 13.484376-2.851562 17.832032-7.820312 2.804687-3.214844 7.6875-3.542969 10.902344-.730469 3.210937 2.804688 3.539062 7.6875.730468 10.902344-7.28125 8.324219-18.019531 13.101563-29.464844 13.101563zm0 0"/></g></svg>